<svg width="94" height="94" viewBox="0 0 94 94" fill="none" xmlns="http://www.w3.org/2000/svg">
<path d="M46.8592 93.2231C72.4653 93.2231 93.2231 72.4653 93.2231 46.8592C93.2231 21.2532 72.4653 0.4953 46.8592 0.4953C21.2532 0.4953 0.495361 21.2532 0.495361 46.8592C0.495361 72.4653 21.2532 93.2231 46.8592 93.2231Z" fill="white"/>
<path d="M46.8592 93.7151C21.0208 93.7151 0 72.6943 0 46.8592C0 21.0241 21.0208 0 46.8592 0C72.6976 0 93.7183 21.0208 93.7183 46.8592C93.7183 72.6976 72.6976 93.7151 46.8592 93.7151ZM46.8592 0.99061C21.5689 0.99061 0.99061 21.5656 0.99061 46.8592C0.99061 72.1528 21.5689 92.7244 46.8592 92.7244C72.1495 92.7244 92.7277 72.1495 92.7277 46.8592C92.7277 21.5689 72.1495 0.99061 46.8592 0.99061Z" fill="#1C1956"/>
<path d="M46.8592 84.9713C67.9079 84.9713 84.9712 67.9079 84.9712 46.8592C84.9712 25.8105 67.9079 8.74707 46.8592 8.74707C25.8104 8.74707 8.74707 25.8105 8.74707 46.8592C8.74707 67.9079 25.8104 84.9713 46.8592 84.9713Z" fill="#DD1474"/>
<path d="M46.8592 82.1777C66.3651 82.1777 82.1778 66.365 82.1778 46.8591C82.1778 27.3532 66.3651 11.5405 46.8592 11.5405C27.3533 11.5405 11.5406 27.3532 11.5406 46.8591C11.5406 66.365 27.3533 82.1777 46.8592 82.1777Z" fill="#F7237D"/>
<path d="M38.7956 60.5626C39.3665 60.5406 39.9194 60.3574 40.3905 60.0343L58.7003 49.3852C59.8395 48.7248 60.2588 48.2823 60.2588 47.5261C60.2588 46.7699 59.8395 46.3275 58.7003 45.6671L40.3905 35.0313C39.9194 34.7068 39.367 34.5203 38.7956 34.493C37.7654 34.493 37.1182 35.2723 37.1182 36.5073V58.545C37.1182 59.7833 37.7786 60.5626 38.7956 60.5626Z" fill="white" fill-opacity="0.85"/>
</svg>
