<svg width="93" height="93" viewBox="0 0 93 93" fill="none" xmlns="http://www.w3.org/2000/svg">
<path d="M46.5017 92.5118C71.9124 92.5118 92.5118 71.9124 92.5118 46.5017C92.5118 21.091 71.9124 0.491577 46.5017 0.491577C21.091 0.491577 0.491577 21.091 0.491577 46.5017C0.491577 71.9124 21.091 92.5118 46.5017 92.5118Z" fill="white"/>
<path d="M46.5016 93C20.8604 93 0 72.1396 0 46.5016C0 20.8636 20.8604 0 46.5016 0C72.1429 0 93 20.8604 93 46.5016C93 72.1429 72.1396 93 46.5016 93ZM46.5016 0.983052C21.401 0.983052 0.983052 21.401 0.983052 46.5016C0.983052 71.6022 21.401 92.0169 46.5016 92.0169C71.6022 92.0169 92.0169 71.599 92.0169 46.5016C92.0169 21.4043 71.599 0.983052 46.5016 0.983052Z" fill="#1C1956"/>
<path d="M46.5016 84.3229C67.3897 84.3229 84.3229 67.3897 84.3229 46.5016C84.3229 25.6135 67.3897 8.6803 46.5016 8.6803C25.6135 8.6803 8.6803 25.6135 8.6803 46.5016C8.6803 67.3897 25.6135 84.3229 46.5016 84.3229Z" fill="#DD1474"/>
<path d="M46.5016 81.5507C65.8587 81.5507 81.5507 65.8587 81.5507 46.5016C81.5507 27.1445 65.8587 11.4525 46.5016 11.4525C27.1445 11.4525 11.4525 27.1445 11.4525 46.5016C11.4525 65.8587 27.1445 81.5507 46.5016 81.5507Z" fill="#F7237D"/>
<path d="M62.1551 26.0476H29.5309V60.5658H62.1551V26.0476Z" fill="#F7237D"/>
<path d="M61.6669 49.9521C61.6669 43.5787 57.3349 39.2172 49.8998 39.2172H37.356L32.3752 39.4171L32.6275 40.0725L36.7465 36.4286L41.9895 31.3004C42.1589 31.117 42.2717 30.8885 42.3142 30.6425C42.3568 30.3965 42.3273 30.1434 42.2293 29.9138C42.1312 29.6842 41.9689 29.4878 41.7618 29.3484C41.5548 29.2089 41.3118 29.1323 41.0621 29.1278C40.7085 29.1423 40.3731 29.2884 40.1217 29.5374L29.9635 39.558C29.8315 39.6807 29.7262 39.8292 29.6542 39.9944C29.5822 40.1596 29.545 40.3379 29.545 40.5181C29.545 40.6983 29.5822 40.8766 29.6542 41.0418C29.7262 41.207 29.8315 41.3555 29.9635 41.4782L40.1217 51.4955C40.3722 51.7459 40.7082 51.8922 41.0621 51.9051C41.3118 51.9006 41.5548 51.824 41.7618 51.6846C41.9689 51.5451 42.1312 51.3487 42.2293 51.1191C42.3273 50.8895 42.3568 50.6364 42.3142 50.3904C42.2717 50.1444 42.1589 49.916 41.9895 49.7326L36.7465 44.6043L32.621 40.9605L32.3687 41.6158L37.3495 41.8157H50.0866C55.8767 41.8157 59.0946 45.0926 59.0946 49.8342C59.0946 54.5757 55.8767 58.0263 50.0866 58.0263H45.6726C45.332 58.0263 45.0052 58.1616 44.7644 58.4025C44.5235 58.6434 44.3881 58.9701 44.3881 59.3108C44.3881 59.6515 44.5235 59.9782 44.7644 60.2191C45.0052 60.46 45.332 60.5953 45.6726 60.5953H50.0997C57.4267 60.5658 61.6669 56.3256 61.6669 49.9521Z" fill="white" fill-opacity="0.85"/>
</svg>
